<?xml version="1.0" encoding="UTF-8" standalone="no"?>
<!DOCTYPE svg PUBLIC "-//W3C//DTD SVG 1.1//EN" "http://www.w3.org/Graphics/SVG/1.1/DTD/svg11.dtd">
<svg width="100%" height="100%" viewBox="0 0 693 655" version="1.1" xmlns="http://www.w3.org/2000/svg" xmlns:xlink="http://www.w3.org/1999/xlink" xml:space="preserve" xmlns:serif="http://www.serif.com/" style="fill-rule:evenodd;clip-rule:evenodd;stroke-linejoin:round;stroke-miterlimit:1.41421;">
    <g id="Layer-1" serif:id="Layer 1" transform="matrix(4.16667,0,0,4.16667,0,0)">
        <g transform="matrix(1,0,0,1,18.2637,125.234)">
            <path d="M0,13.852L-2.668,-0.011L0.002,-0.006L1.68,10.496L3.503,0L5.645,0L7.617,10.712L9.11,0.006L11.754,0.011L9.215,13.863L6.156,13.86L4.567,5.1L3.079,13.856L0,13.852Z" style="fill:rgb(194,205,35);fill-rule:nonzero;"/>
        </g>
        <g transform="matrix(1,0,0,1,32.4341,125.262)">
            <path d="M0,13.844L-2.671,-0.016L0.002,-0.013L1.678,10.489L3.501,-0.01L5.643,-0.006L7.617,10.707L9.108,-0.001L11.754,0.004L9.213,13.86L6.154,13.853L4.565,5.096L3.077,13.851L0,13.844Z" style="fill:rgb(194,205,35);fill-rule:nonzero;"/>
        </g>
        <g transform="matrix(1,0,0,1,46.6025,125.28)">
            <path d="M0,13.845L-2.671,-0.014L0.002,-0.01L1.678,10.491L3.503,-0.006L5.645,-0.004L7.617,10.708L9.107,0.003L11.754,0.007L9.215,13.859L6.153,13.855L4.565,5.099L3.077,13.853L0,13.845Z" style="fill:rgb(194,205,35);fill-rule:nonzero;"/>
        </g>
        <g transform="matrix(0.00160966,-0.999999,-0.999999,-0.00160966,60.1135,139.067)">
            <rect x="-0.081" y="0.081" width="2.485" height="2.321" style="fill:rgb(194,205,35);"/>
        </g>
        <g transform="matrix(1,0,0,1,63.9365,133.299)">
            <path d="M0,-2.145L1.486,-2.145C2.236,-2.14 2.755,-2.292 3.048,-2.591C3.34,-2.892 3.485,-3.427 3.485,-4.203C3.487,-4.889 3.329,-5.374 3.012,-5.65C2.695,-5.929 2.115,-6.065 1.276,-6.068L0.007,-6.07L0,-2.145ZM-2.503,5.85L-2.483,-8.008L2.142,-7.999C3.541,-7.998 4.547,-7.714 5.161,-7.148C5.774,-6.578 6.08,-5.652 6.078,-4.367C6.076,-3.468 5.911,-2.761 5.581,-2.241C5.248,-1.723 4.764,-1.419 4.121,-1.328C5.344,-1.005 5.982,0.031 6.033,1.778L6.033,1.959L6.103,3.793C6.125,4.315 6.192,4.734 6.299,5.048C6.406,5.364 6.573,5.635 6.801,5.863L3.742,5.861C3.67,5.624 3.617,5.35 3.581,5.036C3.545,4.721 3.521,4.276 3.51,3.699L3.476,2.251L3.479,1.882C3.479,1.077 3.309,0.524 2.968,0.225C2.626,-0.074 1.93,-0.226 0.881,-0.228L-0.002,-0.228L-0.011,5.854L-2.503,5.85Z" style="fill:rgb(194,205,35);fill-rule:nonzero;"/>
        </g>
        <g transform="matrix(1,0,0,1,73.8452,130.877)">
            <path d="M0,2.729L2.196,2.731L1.098,-3.084L0,2.729ZM-3.715,8.285L-0.571,-5.569L2.892,-5.564L6.022,8.298L3.242,8.295L2.562,4.811L-0.406,4.806L-1.078,8.29L-3.715,8.285Z" style="fill:rgb(194,205,35);fill-rule:nonzero;"/>
        </g>
        <g transform="matrix(1,0,0,1,82.835,127.365)">
            <path d="M0,9.773L1.145,9.775C1.725,9.775 2.133,9.733 2.367,9.65C2.602,9.567 2.787,9.422 2.926,9.219C3.166,8.858 3.338,8.365 3.44,7.738C3.543,7.114 3.597,6.11 3.6,4.731C3.6,3.385 3.543,2.408 3.423,1.796C3.305,1.182 3.1,0.723 2.813,0.411C2.664,0.254 2.47,0.143 2.233,0.081C1.994,0.016 1.627,-0.015 1.122,-0.015L0.016,-0.017L0,9.773ZM-2.53,11.812L-2.51,-2.046L1.638,-2.039C2.483,-2.039 3.157,-1.966 3.656,-1.823C4.159,-1.677 4.572,-1.441 4.893,-1.118C5.379,-0.642 5.723,-0.044 5.922,0.68C6.123,1.403 6.221,2.526 6.219,4.049C6.215,6.018 6.145,7.408 6.004,8.219C5.865,9.034 5.631,9.723 5.299,10.293C4.982,10.862 4.538,11.258 3.972,11.485C3.402,11.708 2.421,11.819 1.024,11.817L-2.53,11.812Z" style="fill:rgb(194,205,35);fill-rule:nonzero;"/>
        </g>
        <g transform="matrix(0.00144342,-0.999999,-0.999999,-0.00144342,98.4424,133.576)">
            <rect x="-5.628" y="5.634" width="13.859" height="2.582" style="fill:rgb(194,205,35);"/>
        </g>
        <g transform="matrix(1,0,0,1,96.6045,132.279)">
            <path d="M0,-0.007C-0.006,2.273 0.127,3.708 0.393,4.3C0.658,4.89 1.148,5.186 1.867,5.186C2.574,5.186 3.057,4.899 3.316,4.321C3.578,3.743 3.713,2.302 3.715,-0.001C3.719,-2.306 3.59,-3.751 3.326,-4.338C3.064,-4.929 2.576,-5.224 1.865,-5.224C1.152,-5.224 0.664,-4.931 0.4,-4.343C0.135,-3.758 0.002,-2.312 0,-0.007M-2.639,-0.011C-2.637,-1.482 -2.564,-2.655 -2.426,-3.534C-2.287,-4.411 -2.068,-5.074 -1.775,-5.517C-1.373,-6.146 -0.893,-6.596 -0.336,-6.864C0.223,-7.134 0.957,-7.268 1.869,-7.265C2.777,-7.265 3.512,-7.129 4.068,-6.859C4.627,-6.587 5.109,-6.138 5.516,-5.507C5.809,-5.05 6.021,-4.382 6.154,-3.508C6.287,-2.631 6.354,-1.462 6.352,0.002C6.35,1.459 6.279,2.628 6.139,3.507C6.002,4.386 5.787,5.054 5.496,5.509C5.092,6.138 4.607,6.589 4.049,6.854C3.49,7.124 2.758,7.261 1.848,7.258C0.934,7.255 0.199,7.12 -0.355,6.849C-0.914,6.577 -1.391,6.129 -1.793,5.497C-2.084,5.054 -2.299,4.39 -2.438,3.512C-2.57,2.632 -2.641,1.459 -2.639,-0.011" style="fill:rgb(194,205,35);fill-rule:nonzero;"/>
        </g>
        <g transform="matrix(1,0,0,1,103.501,125.364)">
            <path d="M0,13.847L0.004,11.505L4.883,2.158L0.26,2.148L0.264,-0.011L7.631,-0.001L7.629,2.132L2.811,11.511L7.824,11.517L7.82,13.858L0,13.847Z" style="fill:rgb(194,205,35);fill-rule:nonzero;"/>
        </g>
        <g transform="matrix(1,0,0,1,112.145,139.563)">
            <path d="M0,-14.199L2.582,-14.194L2.568,-4.852C2.568,-3.783 2.699,-3.058 2.957,-2.679C3.217,-2.298 3.682,-2.105 4.348,-2.105C5.008,-2.103 5.465,-2.295 5.719,-2.679C5.977,-3.062 6.104,-3.797 6.105,-4.884L6.121,-14.187L8.666,-14.185L8.65,-4.621C8.65,-3.689 8.596,-3.01 8.49,-2.581C8.385,-2.152 8.209,-1.775 7.961,-1.452C7.592,-0.966 7.098,-0.603 6.484,-0.361C5.873,-0.12 5.148,0 4.307,0C2.725,-0.004 1.607,-0.347 0.959,-1.037C0.307,-1.722 -0.018,-2.922 -0.012,-4.631L0,-14.199Z" style="fill:rgb(194,205,35);fill-rule:nonzero;"/>
        </g>
        <g transform="matrix(0.00241642,-0.999997,-0.999997,-0.00241642,124.572,139.165)">
            <rect x="-0.079" y="0.079" width="2.485" height="2.32" style="fill:rgb(194,205,35);"/>
        </g>
        <g transform="matrix(1,0,0,1,128.401,133.394)">
            <path d="M0,-2.144L1.482,-2.144C2.232,-2.142 2.756,-2.292 3.045,-2.593C3.336,-2.892 3.482,-3.427 3.482,-4.202C3.484,-4.891 3.326,-5.375 3.01,-5.652C2.689,-5.927 2.111,-6.067 1.273,-6.067L0.006,-6.07L0,-2.144ZM-2.506,5.85L-2.486,-8.008L2.139,-8.001C3.535,-7.999 4.543,-7.714 5.158,-7.147C5.771,-6.578 6.076,-5.654 6.076,-4.369C6.074,-3.47 5.91,-2.76 5.578,-2.241C5.248,-1.725 4.762,-1.419 4.117,-1.33C5.342,-1.004 5.979,0.031 6.031,1.776L6.031,1.957L6.1,3.793C6.121,4.315 6.189,4.735 6.295,5.049C6.402,5.364 6.57,5.635 6.801,5.864L3.738,5.859C3.668,5.625 3.611,5.35 3.578,5.036C3.543,4.719 3.518,4.274 3.506,3.697L3.475,2.249L3.475,1.88C3.475,1.077 3.307,0.526 2.965,0.225C2.621,-0.076 1.928,-0.228 0.879,-0.23L-0.006,-0.23L-0.012,5.854L-2.506,5.85Z" style="fill:rgb(194,205,35);fill-rule:nonzero;"/>
        </g>
        <g transform="matrix(1,0,0,1,137.977,132.338)">
            <path d="M0,-0.006C-0.002,2.273 0.127,3.711 0.393,4.3C0.66,4.89 1.148,5.187 1.869,5.187C2.574,5.189 3.059,4.902 3.32,4.322C3.582,3.744 3.715,2.303 3.717,0C3.719,-2.305 3.59,-3.75 3.328,-4.337C3.064,-4.926 2.576,-5.221 1.867,-5.221C1.152,-5.223 0.664,-4.931 0.4,-4.342C0.139,-3.755 0.004,-2.311 0,-0.006M-2.639,-0.009C-2.635,-1.481 -2.564,-2.654 -2.426,-3.531C-2.285,-4.41 -2.068,-5.073 -1.773,-5.516C-1.373,-6.145 -0.893,-6.596 -0.332,-6.863C0.225,-7.133 0.957,-7.267 1.869,-7.265C2.779,-7.265 3.514,-7.129 4.072,-6.856C4.629,-6.586 5.109,-6.133 5.516,-5.504C5.809,-5.049 6.021,-4.382 6.156,-3.505C6.289,-2.631 6.354,-1.461 6.352,0.002C6.352,1.462 6.281,2.631 6.141,3.508C6.002,4.387 5.787,5.055 5.5,5.51C5.092,6.139 4.609,6.587 4.051,6.857C3.494,7.127 2.76,7.261 1.85,7.258C0.938,7.258 0.205,7.12 -0.354,6.849C-0.91,6.58 -1.389,6.129 -1.793,5.498C-2.084,5.055 -2.299,4.393 -2.436,3.515C-2.57,2.633 -2.639,1.459 -2.639,-0.009" style="fill:rgb(194,205,35);fill-rule:nonzero;"/>
        </g>
        <g transform="matrix(1,0,0,1,41.0396,48.4767)">
            <path d="M0,58.805L25.789,4.181L2.264,4.181L2.264,-8.709L40.828,-8.709L40.828,2.261L17.758,54.278L17.758,54.621L40.717,54.621L40.717,67.514L0,67.514L0,58.805Z" style="fill:rgb(0,163,138);fill-rule:nonzero;"/>
        </g>
        <g transform="matrix(1,0,0,1,77.9268,102.296)">
            <path d="M0,-40.698L-16.998,0L-13.541,0L0,-40.698Z" style="fill:rgb(0,103,78);fill-rule:nonzero;"/>
        </g>
        <g transform="matrix(1,0,0,1,85.29,118.563)">
            <path d="M0,-14.666L-2.734,-14.546L-1.683,-1.77L-40.187,-1.77L-40.111,0L0.568,-1.786L0,-14.666Z" style="fill:rgb(0,103,78);fill-rule:nonzero;"/>
        </g>
        <g transform="matrix(-0.38574,0.922607,0.922607,0.38574,73.7519,94.6016)">
            <path d="M8.763,-8.863L12.045,-8.863L5.423,6.977L3.991,6.409L8.763,-8.863Z" style="fill:rgb(0,103,78);fill-rule:nonzero;"/>
        </g>
        <g transform="matrix(1,0,0,1,37.3398,70.2975)">
            <path d="M0,33.91L-0.154,42.618L1.988,42.672L1.988,36.803L2.063,36.642L24.412,-8.762L0,33.91Z" style="fill:rgb(0,103,78);fill-rule:nonzero;"/>
        </g>
        <g transform="matrix(1,0,0,1,100.003,91.4165)">
            <path d="M0,-51.605L9.531,-51.605L8.74,-1.269C8.74,-0.383 8.766,0.531 8.82,1.441C8.857,0.348 8.951,-0.835 9.102,-2.121L13.334,-51.856L0.168,-53.046L0,-51.605Z" style="fill:rgb(0,103,78);fill-rule:nonzero;"/>
        </g>
        <g transform="matrix(1,0,0,1,138.921,96.6954)">
            <path d="M0,-53.773L-0.773,-9.148C-0.773,-5.839 -0.988,-2.793 -1.4,0C-0.951,-2.044 -0.582,-4.224 -0.311,-6.551L5.166,-53.168L0,-53.773Z" style="fill:rgb(0,103,78);fill-rule:nonzero;"/>
        </g>
        <g transform="matrix(1,0,0,1,131.831,88.104)">
            <path d="M0,-49.46L-14.744,-48.032L-10.096,0L-11.105,-48.293L0.113,-48.293L0,-49.46Z" style="fill:rgb(0,103,78);fill-rule:nonzero;"/>
        </g>
        <g transform="matrix(1,0,0,1,91.2021,89.8252)">
            <path d="M0,-47.25L-3.381,-46.925L1.145,-0.099C1.148,-0.066 1.154,-0.035 1.156,0C1.139,-0.708 1.127,-1.428 1.127,-2.164L0,-47.25Z" style="fill:rgb(0,103,78);fill-rule:nonzero;"/>
        </g>
        <g transform="matrix(1,0,0,1,107.946,117.744)">
            <path d="M0,-77.129L0,-27.596C0,-16.4 3.387,-13.005 7.232,-13.005C11.531,-13.005 14.588,-16.061 14.588,-27.596L14.588,-77.129L29.402,-77.129L29.402,-30.196C29.402,-10.632 22.051,0 7.348,0C-8.598,0 -14.816,-10.972 -14.816,-30.082L-14.816,-77.129L0,-77.129Z" style="fill:rgb(0,163,138);fill-rule:nonzero;"/>
        </g>
        <g transform="matrix(1,0,0,1,31.8853,108.486)">
            <path d="M0,10.482L-16.763,10.482L-16.763,7.379L-10.188,7.379L-10.188,3.102L-16.763,3.102L-16.763,0L0,0L0,3.102L-7.598,3.102L-7.598,7.379L0,7.379L0,10.482Z" style="fill:rgb(0,103,78);fill-rule:nonzero;"/>
        </g>
        <g transform="matrix(-1,-0,-0,1,47.007,51.04)">
            <rect x="15.122" y="51.47" width="16.763" height="3.124" style="fill:rgb(0,103,78);"/>
        </g>
        <g transform="matrix(1,0,0,1,31.8853,94.1509)">
            <path d="M0,3.124L-13.998,3.124L-13.998,6.716L-16.763,6.716L-16.763,-3.592L-13.998,-3.592L-13.998,0L0,0L0,3.124Z" style="fill:rgb(0,103,78);fill-rule:nonzero;"/>
        </g>
        <g transform="matrix(1,0,0,1,15.1226,78.4325)">
            <path d="M0,10.482L0,7.359L11.298,7.359C12.583,7.359 13.458,7.201 13.922,6.884C14.386,6.57 14.618,6.009 14.618,5.203C14.618,4.412 14.384,3.861 13.917,3.549C13.448,3.237 12.561,3.081 11.255,3.081L0,3.081L0,0L11.571,0C12.681,0 13.497,0.062 14.02,0.185C14.542,0.309 15.003,0.523 15.402,0.828C15.983,1.27 16.425,1.865 16.73,2.612C16.875,2.99 16.984,3.393 17.057,3.821C17.129,4.25 17.166,4.724 17.166,5.247C17.166,7.156 16.752,8.505 15.925,9.296C15.097,10.087 13.646,10.482 11.571,10.482L0,10.482Z" style="fill:rgb(0,103,78);fill-rule:nonzero;"/>
        </g>
        <g transform="matrix(1,0,0,1,22.2085,67.3629)">
            <path d="M0,5.225L0,3.429C0,2.529 -0.183,1.901 -0.549,1.546C-0.916,1.19 -1.563,1.013 -2.493,1.013C-3.32,1.013 -3.902,1.207 -4.24,1.595C-4.577,1.983 -4.746,2.682 -4.746,3.69L-4.746,5.225L0,5.225ZM9.677,8.24L-7.086,8.24L-7.086,2.645C-7.086,0.954 -6.741,-0.261 -6.052,-1.001C-5.71,-1.371 -5.263,-1.65 -4.708,-1.839C-4.152,-2.028 -3.483,-2.122 -2.699,-2.122C-1.604,-2.122 -0.747,-1.926 -0.13,-1.535C0.486,-1.143 0.856,-0.551 0.98,0.24C1.176,-0.508 1.591,-1.081 2.226,-1.48C2.861,-1.879 3.697,-2.079 4.735,-2.079L4.953,-2.079L7.173,-2.166C7.471,-2.166 7.745,-2.186 7.995,-2.226C8.246,-2.266 8.479,-2.325 8.697,-2.405C9.082,-2.543 9.408,-2.746 9.677,-3.015L9.677,0.686C9.394,0.773 9.063,0.838 8.686,0.882C8.527,0.896 8.284,0.914 7.957,0.936C7.63,0.958 7.333,0.969 7.064,0.969L5.312,1.013L4.866,1.013C3.901,1.013 3.235,1.221 2.868,1.639C2.502,2.056 2.318,2.895 2.318,4.158L2.318,5.225L9.677,5.225L9.677,8.24Z" style="fill:rgb(0,103,78);fill-rule:nonzero;"/>
        </g>
        <g transform="matrix(-1,-0,-0,1,47.007,-34.754)">
            <rect x="15.122" y="94.367" width="16.763" height="3.124" style="fill:rgb(0,103,78);"/>
        </g>
        <g transform="matrix(1,0,0,1,31.8853,47.9992)">
            <path d="M0,8.762L-16.763,8.762L-16.763,5.638L-2.852,5.638L-2.852,0L0,0L0,8.762Z" style="fill:rgb(0,103,78);fill-rule:nonzero;"/>
        </g>
        <g transform="matrix(1,0,0,1,31.8853,37.1462)">
            <path d="M0,8.741L-16.763,8.741L-16.763,0.131L-13.976,0.131L-13.976,5.638L-10.101,5.638L-10.101,0.512L-7.445,0.512L-7.445,5.638L-2.83,5.638L-2.83,0L0,0L0,8.741Z" style="fill:rgb(0,103,78);fill-rule:nonzero;"/>
        </g>
        <g transform="matrix(1,0,0,1,45.2871,22.024)">
            <path d="M0,3.311L2.658,3.311L1.318,-3.726L0,3.311ZM-4.488,10.043L-0.708,-6.732L3.486,-6.732L7.299,10.043L3.933,10.043L3.105,5.828L-0.49,5.828L-1.296,10.043L-4.488,10.043Z" style="fill:rgb(0,163,138);fill-rule:nonzero;"/>
        </g>
        <g transform="matrix(1,0,0,1,53.915,21.1838)">
            <path d="M0,4.99L3.126,4.99L3.126,6.069C3.126,7.093 3.255,7.794 3.513,8.171C3.771,8.549 4.216,8.738 4.848,8.738C5.508,8.738 6.011,8.573 6.356,8.242C6.701,7.911 6.874,7.416 6.874,6.755C6.874,6.261 6.754,5.834 6.514,5.475C6.274,5.115 5.755,4.649 4.957,4.075L3.355,2.942C1.99,1.984 1.116,1.192 0.735,0.567C0.354,-0.057 0.163,-0.842 0.163,-1.786C0.163,-3.187 0.58,-4.289 1.413,-5.092C2.246,-5.894 3.395,-6.296 4.858,-6.296C6.395,-6.296 7.579,-5.871 8.413,-5.021C9.246,-4.171 9.663,-2.951 9.663,-1.361L9.663,-0.761L6.699,-0.761L6.699,-1.208C6.699,-2.116 6.55,-2.766 6.253,-3.158C5.955,-3.551 5.465,-3.746 4.782,-3.746C4.281,-3.746 3.887,-3.601 3.6,-3.311C3.313,-3.02 3.17,-2.61 3.17,-2.08C3.17,-1.39 3.813,-0.609 5.098,0.262L5.131,0.284L6.852,1.45C8.072,2.256 8.901,3.022 9.341,3.748C9.78,4.474 10,5.397 10,6.515C10,8.04 9.564,9.217 8.693,10.045C7.821,10.873 6.576,11.286 4.957,11.286C3.286,11.286 2.035,10.849 1.204,9.974C0.372,9.099 -0.044,7.772 -0.044,5.992L0,5.055L0,4.99Z" style="fill:rgb(0,163,138);fill-rule:nonzero;"/>
        </g>
        <g transform="matrix(1,0,0,1,73.1201,21.2709)">
            <path d="M0,4.816L3.04,4.816L3.05,5.143L3.061,5.469C3.061,7.416 2.654,8.858 1.841,9.794C1.028,10.731 -0.225,11.199 -1.917,11.199C-2.73,11.199 -3.419,11.098 -3.981,10.895C-4.544,10.691 -5.037,10.368 -5.458,9.925C-6.017,9.358 -6.415,8.56 -6.65,7.528C-6.886,6.497 -7.004,4.725 -7.004,2.212C-7.004,0.462 -6.938,-0.921 -6.803,-1.938C-6.668,-2.955 -6.453,-3.706 -6.155,-4.193C-5.705,-4.955 -5.146,-5.511 -4.477,-5.86C-3.809,-6.208 -2.956,-6.383 -1.917,-6.383C-0.218,-6.383 1.021,-5.938 1.797,-5.048C2.575,-4.159 2.963,-2.737 2.963,-0.784L-0.065,-0.784L-0.065,-1.186C-0.065,-2.101 -0.21,-2.781 -0.501,-3.224C-0.792,-3.666 -1.242,-3.888 -1.852,-3.888C-2.592,-3.888 -3.101,-3.578 -3.377,-2.956C-3.653,-2.336 -3.791,-0.631 -3.791,2.158C-3.791,5.165 -3.66,6.998 -3.398,7.659C-3.137,8.32 -2.629,8.65 -1.874,8.65C-1.184,8.65 -0.699,8.395 -0.419,7.882C-0.14,7.371 0,6.424 0,5.045L0,4.816Z" style="fill:rgb(0,163,138);fill-rule:nonzero;"/>
        </g>
        <g transform="matrix(1,0,0,1,78.6763,32.4705)">
            <path d="M0,-17.179L3.126,-17.179L3.126,-5.872C3.126,-4.586 3.284,-3.711 3.6,-3.246C3.916,-2.782 4.477,-2.549 5.283,-2.549C6.075,-2.549 6.626,-2.783 6.939,-3.252C7.25,-3.72 7.407,-4.608 7.407,-5.915L7.407,-17.179L10.491,-17.179L10.491,-5.599C10.491,-4.488 10.428,-3.671 10.305,-3.148C10.182,-2.625 9.967,-2.164 9.663,-1.765C9.219,-1.184 8.624,-0.741 7.875,-0.436C7.499,-0.291 7.095,-0.181 6.667,-0.109C6.239,-0.036 5.762,0 5.24,0C3.33,0 1.979,-0.414 1.187,-1.242C0.396,-2.07 0,-3.522 0,-5.599L0,-17.179Z" style="fill:rgb(0,163,138);fill-rule:nonzero;"/>
        </g>
        <g transform="matrix(1,0,0,1,91.999,15.2914)">
            <path d="M0,16.776L0,0L3.127,0L3.127,13.922L8.77,13.922L8.77,16.776L0,16.776Z" style="fill:rgb(0,163,138);fill-rule:nonzero;"/>
        </g>
        <g transform="matrix(1,0,0,1,103.448,15.2914)">
            <path d="M0,16.776L0,2.767L-3.596,2.767L-3.596,0L6.721,0L6.721,2.767L3.127,2.767L3.127,16.776L0,16.776Z" style="fill:rgb(0,163,138);fill-rule:nonzero;"/>
        </g>
        <g transform="matrix(1,0,0,1,113.852,22.024)">
            <path d="M0,3.311L2.656,3.311L1.316,-3.726L0,3.311ZM-4.488,10.043L-0.709,-6.732L3.484,-6.732L7.297,10.043L3.932,10.043L3.104,5.828L-0.49,5.828L-1.297,10.043L-4.488,10.043Z" style="fill:rgb(0,163,138);fill-rule:nonzero;"/>
        </g>
        <g transform="matrix(1,0,0,1,15.9087,21.1833)">
            <path d="M0,4.99L3.127,4.99L3.127,6.069C3.127,7.093 3.256,7.794 3.514,8.172C3.771,8.549 4.217,8.738 4.849,8.738C5.509,8.738 6.013,8.573 6.357,8.242C6.703,7.912 6.875,7.416 6.875,6.755C6.875,6.261 6.755,5.834 6.516,5.475C6.276,5.115 5.756,4.649 4.958,4.075L3.356,2.942C1.99,1.983 1.117,1.191 0.735,0.567C0.354,-0.058 0.164,-0.843 0.164,-1.787C0.164,-3.189 0.58,-4.291 1.414,-5.094C2.247,-5.896 3.396,-6.298 4.859,-6.298C6.396,-6.298 7.581,-5.873 8.414,-5.023C9.248,-4.173 9.665,-2.953 9.665,-1.362L9.665,-0.763L6.701,-0.763L6.701,-1.21C6.701,-2.117 6.552,-2.768 6.254,-3.16C5.956,-3.552 5.466,-3.748 4.783,-3.748C4.282,-3.748 3.888,-3.603 3.601,-3.312C3.314,-3.022 3.17,-2.611 3.17,-2.081C3.17,-1.391 3.813,-0.61 5.099,0.261L5.132,0.283L6.854,1.449C8.074,2.255 8.903,3.022 9.343,3.748C9.782,4.474 10.002,5.397 10.002,6.515C10.002,8.041 9.566,9.218 8.695,10.046C7.823,10.874 6.577,11.288 4.958,11.288C3.287,11.288 2.036,10.85 1.204,9.975C0.372,9.099 -0.043,7.772 -0.043,5.992L0,5.055L0,4.99Z" style="fill:rgb(194,205,35);fill-rule:nonzero;"/>
        </g>
        <g transform="matrix(1,0,0,1,28.4492,15.2889)">
            <path d="M0,16.779L0,0L8.619,0L8.619,2.789L3.105,2.789L3.105,6.668L8.237,6.668L8.237,9.326L3.105,9.326L3.105,13.946L8.749,13.946L8.749,16.779L0,16.779Z" style="fill:rgb(194,205,35);fill-rule:nonzero;"/>
        </g>
        <g transform="matrix(1,0,0,1,123.726,15.2889)">
            <path d="M0,16.779L0,0L3.127,0L3.127,13.925L8.771,13.925L8.771,16.779L0,16.779Z" style="fill:rgb(194,205,35);fill-rule:nonzero;"/>
        </g>
        <g transform="matrix(1,0,0,1,137.868,22.0215)">
            <path d="M0,3.313L2.658,3.313L1.318,-3.726L0,3.313ZM-4.489,10.046L-0.709,-6.733L3.486,-6.733L7.299,10.046L3.933,10.046L3.105,5.83L-0.49,5.83L-1.297,10.046L-4.489,10.046Z" style="fill:rgb(194,205,35);fill-rule:nonzero;"/>
        </g>
    </g>
</svg>
